<svg xmlns="http://www.w3.org/2000/svg" viewBox="0 0 977.91 951"><defs><style>.cls-1{fill:#fff;}</style></defs><title>eddy-logo-white</title><g id="Livello_2" data-name="Livello 2"><g id="white"><path class="cls-1" d="M0,951V743.36H173V761H20.55v71.48H165.33v17.22H20.55v83.58H175.3V951Z"/><path class="cls-1" d="M460.32,847q0,19.94-4.16,35.43a92.12,92.12,0,0,1-11.71,27,76.15,76.15,0,0,1-18.36,19.49,94.81,94.81,0,0,1-24,12.85,141.24,141.24,0,0,1-28.71,7A232.77,232.77,0,0,1,340.78,951H233.63V743.36H340.48a214,214,0,0,1,47.45,5q21.92,5,38,17t25.23,32Q460.32,817.26,460.32,847ZM441,847.1a121.9,121.9,0,0,0-3.32-30,76.45,76.45,0,0,0-9.53-22.61A60.16,60.16,0,0,0,413,778.43a79.45,79.45,0,0,0-20.11-10.51,115.1,115.1,0,0,0-24.35-5.67,223.21,223.21,0,0,0-28-1.67h-88V933.77h88a191.35,191.35,0,0,0,40.68-4q18.45-4,31.69-13.91t20.64-26.62Q441,872.51,441,847.1Z"/><path class="cls-1" d="M742,847q0,19.94-4.16,35.43a92.12,92.12,0,0,1-11.71,27,76.15,76.15,0,0,1-18.36,19.49,94.81,94.81,0,0,1-24,12.85,141.24,141.24,0,0,1-28.71,7A232.77,232.77,0,0,1,622.47,951H515.32V743.36H622.17a214,214,0,0,1,47.45,5q21.92,5,38,17t25.23,32Q742,817.26,742,847Zm-19.35.07a121.9,121.9,0,0,0-3.32-30,76.45,76.45,0,0,0-9.53-22.61,60.16,60.16,0,0,0-15.13-16.11,79.45,79.45,0,0,0-20.11-10.51,115.1,115.1,0,0,0-24.35-5.67,223.21,223.21,0,0,0-28-1.67h-88V933.77h88a191.35,191.35,0,0,0,40.68-4q18.45-4,31.69-13.91t20.64-26.62Q722.66,872.51,722.66,847.1Z"/><path class="cls-1" d="M880.43,863v88H861.54V863L764.07,743.36h22.52l84.47,104,84.18-104h22.67Z"/><path class="cls-1" d="M477.09,15.19A310.65,310.65,0,0,1,598,611.92,310.65,310.65,0,0,1,356.21,39.59a308.62,308.62,0,0,1,120.88-24.4m0-15.19C297.18,0,151.34,145.84,151.34,325.75S297.18,651.51,477.09,651.51,802.84,505.66,802.84,325.75,657,0,477.09,0Z"/><path class="cls-1" d="M734.88,325.75,537.16,523.47c-33.12,33.12-84.34,35.8-114.17,6L273.41,379.86c-29.83-29.83-27.16-81.05,6-114.18L477.09,68l51.56,51.56L330.93,317.24a3.83,3.83,0,0,0-.28,5.38l49.19,49.19,143-143,51.56,51.56-143,143,48.83,48.83a3.81,3.81,0,0,0,5.37-.28L683.32,274.2Z"/></g></g></svg>