<svg xmlns="http://www.w3.org/2000/svg" viewBox="0 0 651.51 651.51"><title>eddy-icon-black</title><g id="Livello_2" data-name="Livello 2"><g id="black"><path d="M325.75,15.19A310.65,310.65,0,0,1,446.64,611.92,310.65,310.65,0,0,1,204.87,39.59a308.62,308.62,0,0,1,120.88-24.4m0-15.19C145.84,0,0,145.84,0,325.75S145.84,651.51,325.75,651.51,651.51,505.66,651.51,325.75,505.66,0,325.75,0Z"/><path d="M583.54,325.75,385.82,523.47c-33.12,33.12-84.34,35.8-114.17,6L122.07,379.86C92.24,350,94.92,298.81,128,265.68L325.75,68l51.56,51.56L179.6,317.24a3.83,3.83,0,0,0-.29,5.38l49.19,49.19,143-143,51.55,51.56-143,143,48.83,48.83a3.82,3.82,0,0,0,5.38-.28L532,274.2Z"/></g></g></svg>